<svg width="449" height="528" viewBox="0 0 449 528" fill="none" xmlns="http://www.w3.org/2000/svg">
    <g opacity="0.2">
        <!-- left top -->
        <path
            d="M91.7969 3.93066L43.3577 30.5727C41.9985 31.3203 41.9709 33.2636 43.3084 34.0495L88.8387 60.801C90.1597 61.5772 90.1531 63.4897 88.8268 64.2567L15.549 106.633"
            stroke="#CCCCCC" stroke-width="2" />
        <path
            d="M116.123 76.417L42.7316 119.335C41.3909 120.119 41.4164 122.065 42.7773 122.813L88.4107 147.913C89.7736 148.662 89.7967 150.613 88.452 151.394L66.8287 163.965C66.2121 164.323 65.4513 164.326 64.8319 163.973L39.6881 149.617"
            stroke="#CCCCCC" stroke-width="2" />
        <rect y="0.999935" width="4.04916" height="4.04916" rx="1"
            transform="matrix(-0.866044 0.499967 0.866044 0.499967 37.2004 145.863)" stroke="#CCCCCC"
            stroke-width="2" />
        <rect y="0.999935" width="5.86873" height="5.86873" rx="1"
            transform="matrix(-0.866044 0.499967 0.866044 0.499967 115.257 73.4873)" fill="#CCCCCC" stroke="#CCCCCC"
            stroke-width="2" />
        <rect y="0.999935" width="5.86873" height="5.86873" rx="1"
            transform="matrix(-0.866044 0.499967 0.866044 0.499967 90.9309 0.5)" fill="#CCCCCC" stroke="#CCCCCC"
            stroke-width="2" />

        <!-- left bottom -->
        <path d="M1 422.867L80.2182 469.192C81.5465 469.969 81.5368 471.892 80.2007 472.655L21.435 506.228"
            stroke="#CCCCCC" stroke-width="2" />
        <rect x="1.19209e-07" y="-0.999935" width="9.14984" height="9.14984" rx="1"
            transform="matrix(-0.866044 -0.499967 0.866044 -0.499967 18.5222 512.915)" fill="#CCCCCC" stroke="#CCCCCC"
            stroke-width="2" />

        <!-- right top -->
        <path
            d="M347.328 264.008L398.884 292.364C400.243 293.112 400.271 295.055 398.933 295.841L350.286 324.424C348.965 325.2 348.972 327.112 350.298 327.879L428.189 372.923"
            stroke="#CCCCCC" stroke-width="2" />
        <path
            d="M321.531 340.875L399.547 386.497C400.887 387.281 400.862 389.227 399.501 389.975L350.733 416.799C349.37 417.549 349.347 419.499 350.691 420.281L373.868 433.754C374.485 434.113 375.245 434.116 375.865 433.762L402.59 418.503"
            stroke="#CCCCCC" stroke-width="2" />
        <rect y="0.999935" width="6.34475" height="6.34475" rx="1"
            transform="matrix(0.866044 0.499967 -0.866044 0.499967 404.862 413.656)" fill="#CCCCCC" stroke="#CCCCCC"
            stroke-width="2" />
        <rect y="0.999935" width="4.87631" height="4.87631" rx="1"
            transform="matrix(0.866044 0.499967 -0.866044 0.499967 322.397 337.719)" fill="white" stroke="#CCCCCC"
            stroke-width="2" />
        <rect y="0.999935" width="6.34475" height="6.34475" rx="1"
            transform="matrix(0.866044 0.499967 -0.866044 0.499967 348.194 260.336)" fill="#CCCCCC" stroke="#CCCCCC"
            stroke-width="2" />
        <path d="M433.039 170.375L354.993 216.015C353.659 216.795 353.676 218.728 355.023 219.485L392.486 240.524"
            stroke="#CCCCCC" stroke-width="2" />
        <rect y="0.999935" width="6.34475" height="6.34475" rx="1"
            transform="matrix(0.866044 0.499967 -0.866044 0.499967 395.855 238.125)" fill="#CCCCCC" stroke="#CCCCCC"
            stroke-width="2" />
    </g>
</svg>